<svg xmlns="http://www.w3.org/2000/svg" id="master-artboard" viewBox="0 0 839.236083984375 166.5972442626953" version="1.1" x="0px" y="0px" style="enable-background:new 0 0 336 235.2;" width="839.236083984375px" height="166.5972442626953px"><rect id="ee-background" x="0" y="0" width="839.236083984375" height="166.5972442626953" style="fill: white; fill-opacity: 0; pointer-events: none;"/><g transform="matrix(1.6462839841842651, 0, 0, 1.6462839841842651, -272.7867817967371, -402.5694401120124)"><path class="st0" d="M280.55,265.78v24.79h-4.36v-24.79H280.55z" style="fill: rgb(0, 162, 204);"/><path class="st0" d="M304.81,265.78h4.29v24.79h-3.65l-13.67-17.64v17.64h-4.29v-24.79h4.04l13.28,17.14V265.78z" style="fill: rgb(0, 162, 204);"/><path class="st0" d="M326.27,290.58h-4.39v-20.76h-7.86v-4.04h20.12v4.04h-7.86V290.58z" style="fill: rgb(0, 162, 204);"/><path class="st0" d="M357.44,269.68h-14.03v6.45h12.43v3.9h-12.43v6.66h14.2v3.9h-18.56v-24.79h18.38V269.68z" style="fill: rgb(0, 162, 204);"/><path class="st0" d="M379.01,290.58l-6.09-8.64h-5.45v8.64h-4.36v-24.79h11.05c5.7,0,9.21,3.01,9.21,7.86&#10;&#9;c0,4.11-2.44,6.59-5.92,7.54l6.69,9.39H379.01z M373.8,269.75h-6.34v8.32h6.37c3.12,0,5.1-1.63,5.1-4.18&#10;&#9;C378.94,271.17,377.02,269.75,373.8,269.75z" style="fill: rgb(0, 162, 204);"/><path class="st0" d="M412.76,290.58h-4.6l-2.51-5.99h-11.72l-2.55,5.99h-4.46l10.91-24.97h4.04L412.76,290.58z M399.76,270.81&#10;&#9;l-4.25,9.92h8.54L399.76,270.81z" style="fill: rgb(0, 162, 204);"/><path class="st0" d="M427.31,291c-7.23,0-12.61-5.63-12.61-12.79c0-7.08,5.28-12.86,12.79-12.86c4.57,0,7.33,1.59,9.71,3.86&#10;&#9;l-2.8,3.22c-1.98-1.84-4.11-3.08-6.94-3.08c-4.75,0-8.18,3.9-8.18,8.78c0,4.89,3.44,8.85,8.18,8.85c3.05,0,4.99-1.24,7.12-3.22&#10;&#9;l2.8,2.83C434.78,289.3,431.95,291,427.31,291z" style="fill: rgb(0, 162, 204);"/><path class="st0" d="M452.74,290.58h-4.39v-20.76h-7.86v-4.04h20.12v4.04h-7.86V290.58z" style="fill: rgb(0, 162, 204);"/><path class="st1" d="M299.67,327.08h-4.6l-2.52-5.99h-11.72l-2.55,5.99h-4.46l10.91-24.97h4.04L299.67,327.08z M286.67,307.32&#10;&#9;l-4.25,9.92h8.54L286.67,307.32z" style="fill: rgb(27, 62, 117);"/><path class="st1" d="M322.38,302.29h4.29v24.79h-3.65l-13.67-17.64v17.64h-4.29v-24.79h4.04l13.28,17.14V302.29z" style="fill: rgb(27, 62, 117);"/><path class="st1" d="M357.9,327.08h-4.6l-2.52-5.99h-11.72l-2.55,5.99h-4.46l10.91-24.97h4.04L357.9,327.08z M344.9,307.32&#10;&#9;l-4.25,9.92h8.54L344.9,307.32z" style="fill: rgb(27, 62, 117);"/><path class="st1" d="M363.28,302.29h4.36v20.83h13.03v3.97h-17.39V302.29z" style="fill: rgb(27, 62, 117);"/><path class="st1" d="M393.42,327.08h-4.39v-9.78l-9.85-15.02h5.14l6.94,10.98l7.01-10.98h4.99l-9.85,14.91V327.08z" style="fill: rgb(27, 62, 117);"/><path class="st1" d="M416.54,312.7c5.24,1.28,7.97,3.15,7.97,7.3c0,4.68-3.65,7.44-8.85,7.44c-3.79,0-7.37-1.31-10.34-3.97&#10;&#9;l2.62-3.12c2.37,2.05,4.75,3.22,7.83,3.22c2.69,0,4.39-1.24,4.39-3.15c0-1.81-0.99-2.76-5.6-3.83c-5.28-1.28-8.25-2.83-8.25-7.44&#10;&#9;c0-4.32,3.54-7.23,8.46-7.23c3.61,0,6.48,1.1,9,3.12l-2.34,3.29c-2.23-1.66-4.46-2.55-6.73-2.55c-2.55,0-4.04,1.31-4.04,2.98&#10;&#9;C410.66,310.72,411.79,311.57,416.54,312.7z" style="fill: rgb(27, 62, 117);"/><path class="st1" d="M435.38,302.29v24.79h-4.36v-24.79H435.38z" style="fill: rgb(27, 62, 117);"/><path class="st1" d="M452.7,312.7c5.24,1.28,7.97,3.15,7.97,7.3c0,4.68-3.65,7.44-8.86,7.44c-3.79,0-7.37-1.31-10.34-3.97l2.62-3.12&#10;&#9;c2.37,2.05,4.75,3.22,7.83,3.22c2.69,0,4.39-1.24,4.39-3.15c0-1.81-0.99-2.76-5.6-3.83c-5.28-1.28-8.25-2.83-8.25-7.44&#10;&#9;c0-4.32,3.54-7.23,8.47-7.23c3.61,0,6.48,1.1,9,3.12l-2.34,3.29c-2.23-1.66-4.46-2.55-6.73-2.55c-2.55,0-4.04,1.31-4.04,2.98&#10;&#9;C446.82,310.72,447.95,311.57,452.7,312.7z" style="fill: rgb(27, 62, 117);"/><path d="M 235.7100067138672 296.2799987792969 L 235.7100067138672 296.2799987792969 L 235.7100067138672 296.2799987792969 Z" class="st2" style="fill: rgb(151, 212, 230);"/><path d="M 235.72000122070312 284.0400085449219 L 235.7100067138672 284.0299987792969 L 235.7100067138672 284.0400085449219 Z" class="st2" style="fill: rgb(151, 212, 230);"/><path d="M 193.3300018310547 284.0299987792969 L 193.3300018310547 284.0400085449219 L 193.3300018310547 284.0400085449219 Z" class="st2" style="fill: rgb(151, 212, 230);"/><path d="M 193.3300018310547 296.2799987792969 L 193.3300018310547 296.2799987792969 L 193.3300018310547 296.2799987792969 Z" class="st2" style="fill: rgb(151, 212, 230);"/><path d="M 214.52000427246094 296.2799987792969 L 214.52000427246094 296.2799987792969 L 214.52000427246094 296.2799987792969 Z" class="st2" style="fill: rgb(151, 212, 230);"/><path d="M 214.52000427246094 320.7900085449219 L 214.52000427246094 320.7900085449219 L 214.52000427246094 320.7900085449219 Z" class="st2" style="fill: rgb(151, 212, 230);"/><path d="M 214.52000427246094 284.0400085449219 L 214.52000427246094 284.0400085449219 L 214.52000427246094 284.0400085449219 Z" class="st2" style="fill: rgb(151, 212, 230);"/><path d="M 214.52000427246094 271.79998779296875 L 214.52000427246094 271.79998779296875 L 214.52000427246094 284.0400085449219 L 214.52000427246094 284.0400085449219 L 235.7100067138672 296.2799987792969 L 235.7100067138672 284.0400085449219 L 235.7100067138672 284.0299987792969 Z" class="st3" style="fill: rgb(5, 123, 177);"/><path d="M 214.52000427246094 284.0400085449219 L 193.3300018310547 296.2799987792969 L 193.3300018310547 296.2799987792969 L 214.52000427246094 308.510009765625 L 214.52000427246094 308.510009765625 L 235.7100067138672 296.2799987792969 L 235.7100067138672 296.2799987792969 Z" class="st2" style="fill: rgb(151, 212, 230);"/><path d="M 214.52000427246094 308.510009765625 L 214.52000427246094 308.510009765625 L 214.52000427246094 308.510009765625 Z" class="st2" style="fill: rgb(151, 212, 230);"/><path d="M 193.3300018310547 284.0299987792969 L 193.3300018310547 284.0400085449219 L 193.3300018310547 296.2799987792969 L 214.52000427246094 284.0400085449219 L 214.52000427246094 284.0400085449219 L 214.52000427246094 271.79998779296875 Z" class="st1" style="fill: rgb(27, 62, 117);"/><path d="M 193.3300018310547 284.0400085449219 L 174.77999877929688 273.3299865722656 L 174.77999877929688 285.57000732421875 L 193.3300018310547 296.2799987792969 L 193.3300018310547 296.2799987792969 L 193.3300018310547 284.0400085449219 Z" class="st3" style="fill: rgb(5, 123, 177);"/><path d="M 174.77999877929688 285.57000732421875 L 174.77999877929688 306.9800109863281 L 193.3300018310547 296.2799987792969 Z" class="st2" style="fill: rgb(151, 212, 230);"/><path d="M 193.3300018310547 296.2799987792969 L 174.77999877929688 306.9800109863281 L 174.77999877929688 319.2200012207031 L 193.2899932861328 308.5299987792969 L 193.3300018310547 308.510009765625 L 193.3300018310547 296.2799987792969 Z" class="st1" style="fill: rgb(27, 62, 117);"/><path d="M 235.75 308.5299987792969 L 235.7100067138672 308.55999755859375 L 214.52000427246094 320.7900085449219 L 214.52000427246094 320.7900085449219 L 214.52000427246094 320.7900085449219 L 193.3300018310547 308.55999755859375 L 193.2899932861328 308.5299987792969 L 174.77999877929688 319.2200012207031 L 214.52000427246094 342.1600036621094 L 214.52000427246094 342.1600036621094 L 254.25999450683594 319.2200012207031 Z" class="st0" style="fill: rgb(0, 162, 204);"/><path d="M 235.7100067138672 308.55999755859375 L 235.75 308.5299987792969 L 235.7100067138672 308.510009765625 Z" class="st2" style="fill: rgb(151, 212, 230);"/><path d="M 214.52000427246094 308.510009765625 L 214.52000427246094 308.510009765625 L 214.52000427246094 320.7900085449219 L 235.7100067138672 308.55999755859375 L 235.7100067138672 308.510009765625 L 235.7100067138672 296.2799987792969 Z" class="st1" style="fill: rgb(27, 62, 117);"/><path d="M 193.2899932861328 308.5299987792969 L 193.3300018310547 308.55999755859375 L 193.3300018310547 308.510009765625 Z" class="st2" style="fill: rgb(151, 212, 230);"/><path d="M 214.52000427246094 308.510009765625 L 193.3300018310547 296.2799987792969 L 193.3300018310547 308.510009765625 L 193.3300018310547 308.55999755859375 L 214.52000427246094 320.7900085449219 L 214.52000427246094 320.7900085449219 L 214.52000427246094 308.510009765625 Z" class="st3" style="fill: rgb(5, 123, 177);"/><path d="M 235.7100067138672 296.2799987792969 L 235.7100067138672 296.2799987792969 L 235.7100067138672 308.510009765625 L 235.75 308.5299987792969 L 254.25999450683594 319.2200012207031 L 254.25999450683594 306.9800109863281 Z" class="st3" style="fill: rgb(5, 123, 177);"/><path d="M 254.25999450683594 273.3299865722656 L 235.72000122070312 284.0400085449219 L 235.7100067138672 284.0400085449219 L 235.7100067138672 296.2799987792969 L 235.7100067138672 296.2799987792969 L 254.25999450683594 285.57000732421875 L 254.25999450683594 273.3299865722656 Z" class="st1" style="fill: rgb(27, 62, 117);"/><path d="M 254.25999450683594 285.57000732421875 L 235.7100067138672 296.2799987792969 L 254.25999450683594 306.9800109863281 Z" class="st2" style="fill: rgb(151, 212, 230);"/><path d="M 214.52000427246094 250.38999938964844 L 214.52000427246094 250.38999938964844 L 174.77999877929688 273.3299865722656 L 193.3300018310547 284.0400085449219 L 193.3300018310547 284.0299987792969 L 214.52000427246094 271.79998779296875 L 214.52000427246094 271.79998779296875 L 235.7100067138672 284.0299987792969 L 235.72000122070312 284.0400085449219 L 254.25999450683594 273.3299865722656 Z" class="st0" style="fill: rgb(0, 162, 204);"/><g>
	<path class="st1" d="M501.82,276.54h1.52v13.46h-1.52V276.54z" style="fill: rgb(27, 62, 117);"/>
	<path class="st1" d="M507.03,280.05h1.48v1.73c0.65-1.08,1.69-1.94,3.4-1.94c2.4,0,3.81,1.62,3.81,3.98v6.17h-1.48v-5.81&#10;&#9;&#9;c0-1.85-1-3-2.75-3c-1.71,0-2.98,1.25-2.98,3.11v5.69h-1.48V280.05z" style="fill: rgb(27, 62, 117);"/>
	<path class="st1" d="M518.05,288.72l0.75-1.06c1.08,0.81,2.27,1.27,3.44,1.27c1.19,0,2.06-0.62,2.06-1.58v-0.04&#10;&#9;&#9;c0-1-1.17-1.38-2.48-1.75c-1.56-0.44-3.29-0.98-3.29-2.81v-0.04c0-1.71,1.42-2.85,3.38-2.85c1.21,0,2.56,0.42,3.58,1.1l-0.67,1.12&#10;&#9;&#9;c-0.92-0.6-1.98-0.96-2.94-0.96c-1.17,0-1.92,0.62-1.92,1.44v0.04c0,0.94,1.23,1.31,2.56,1.71c1.54,0.46,3.19,1.06,3.19,2.85v0.04&#10;&#9;&#9;c0,1.88-1.56,2.98-3.54,2.98C520.74,290.19,519.16,289.63,518.05,288.72z" style="fill: rgb(27, 62, 117);"/>
	<path class="st1" d="M528.45,280.05h1.48v2c0.81-1.19,1.98-2.21,3.81-2.21c2.38,0,4.75,1.88,4.75,5.15v0.04&#10;&#9;&#9;c0,3.25-2.35,5.17-4.75,5.17c-1.85,0-3.04-1-3.81-2.11v4.98h-1.48V280.05z M536.97,285.05v-0.04c0-2.35-1.62-3.85-3.5-3.85&#10;&#9;&#9;c-1.85,0-3.6,1.56-3.6,3.83v0.04c0,2.31,1.75,3.85,3.6,3.85C535.39,288.88,536.97,287.45,536.97,285.05z" style="fill: rgb(27, 62, 117);"/>
	<path class="st1" d="M541.26,276.25h1.69v1.63h-1.69V276.25z M541.36,280.05h1.48v9.94h-1.48V280.05z" style="fill: rgb(27, 62, 117);"/>
	<path class="st1" d="M546.28,280.05h1.48v2.6c0.73-1.65,2.17-2.85,4.06-2.77v1.6h-0.12c-2.17,0-3.94,1.56-3.94,4.56v3.96h-1.48&#10;&#9;&#9;V280.05z" style="fill: rgb(27, 62, 117);"/>
	<path class="st1" d="M554.11,276.25h1.69v1.63h-1.69V276.25z M554.2,280.05h1.48v9.94h-1.48V280.05z" style="fill: rgb(27, 62, 117);"/>
	<path class="st1" d="M559.12,280.05h1.48v1.73c0.65-1.08,1.69-1.94,3.4-1.94c2.4,0,3.81,1.62,3.81,3.98v6.17h-1.48v-5.81&#10;&#9;&#9;c0-1.85-1-3-2.75-3c-1.71,0-2.98,1.25-2.98,3.11v5.69h-1.48V280.05z" style="fill: rgb(27, 62, 117);"/>
	<path class="st1" d="M570.86,291.72l0.67-1.15c1.13,0.83,2.4,1.27,3.83,1.27c2.19,0,3.61-1.21,3.61-3.54v-1.17&#10;&#9;&#9;c-0.87,1.15-2.08,2.1-3.9,2.1c-2.38,0-4.67-1.79-4.67-4.65v-0.04c0-2.9,2.31-4.69,4.67-4.69c1.86,0,3.08,0.92,3.88,2v-1.79h1.48&#10;&#9;&#9;v8.21c0,1.54-0.46,2.71-1.27,3.52c-0.88,0.88-2.21,1.33-3.79,1.33C573.72,293.11,572.18,292.65,570.86,291.72z M579.01,284.55&#10;&#9;&#9;v-0.04c0-2.04-1.77-3.36-3.65-3.36c-1.88,0-3.44,1.31-3.44,3.35v0.04c0,2,1.6,3.38,3.44,3.38&#10;&#9;&#9;C577.24,287.92,579.01,286.55,579.01,284.55z" style="fill: rgb(27, 62, 117);"/>
	<path class="st1" d="M501.47,299.32h1.69v1.63h-1.69V299.32z M501.57,303.13h1.48v9.94h-1.48V303.13z" style="fill: rgb(27, 62, 117);"/>
	<path class="st1" d="M506.49,303.13h1.48v1.73c0.65-1.08,1.69-1.94,3.4-1.94c2.4,0,3.81,1.62,3.81,3.98v6.17h-1.48v-5.81&#10;&#9;&#9;c0-1.85-1-3-2.75-3c-1.71,0-2.98,1.25-2.98,3.11v5.69h-1.48V303.13z" style="fill: rgb(27, 62, 117);"/>
	<path class="st1" d="M518.86,310.44v-6h-1.38v-1.31h1.38v-3h1.48v3h3.15v1.31h-3.15v5.81c0,1.21,0.67,1.65,1.67,1.65&#10;&#9;&#9;c0.5,0,0.92-0.1,1.44-0.35v1.27c-0.52,0.27-1.08,0.42-1.79,0.42C520.07,313.24,518.86,312.45,518.86,310.44z" style="fill: rgb(27, 62, 117);"/>
	<path class="st1" d="M525.2,308.13v-0.04c0-2.86,2.02-5.17,4.77-5.17c2.94,0,4.63,2.35,4.63,5.25c0,0.19,0,0.31-0.02,0.48h-7.88&#10;&#9;&#9;c0.21,2.15,1.73,3.36,3.5,3.36c1.37,0,2.33-0.56,3.13-1.4l0.92,0.83c-1,1.11-2.21,1.86-4.09,1.86&#10;&#9;&#9;C527.43,313.3,525.2,311.2,525.2,308.13z M533.11,307.55c-0.15-1.81-1.19-3.38-3.17-3.38c-1.73,0-3.04,1.44-3.23,3.38H533.11z" style="fill: rgb(27, 62, 117);"/>
	<path class="st1" d="M537.34,299.03h1.48v14.04h-1.48V299.03z" style="fill: rgb(27, 62, 117);"/>
	<path class="st1" d="M542.4,299.03h1.48v14.04h-1.48V299.03z" style="fill: rgb(27, 62, 117);"/>
	<path class="st1" d="M547.36,299.32h1.69v1.63h-1.69V299.32z M547.45,303.13h1.48v9.94h-1.48V303.13z" style="fill: rgb(27, 62, 117);"/>
	<path class="st1" d="M552.26,314.8l0.67-1.15c1.13,0.83,2.4,1.27,3.83,1.27c2.19,0,3.61-1.21,3.61-3.54v-1.17&#10;&#9;&#9;c-0.87,1.15-2.08,2.09-3.9,2.09c-2.38,0-4.67-1.79-4.67-4.65v-0.04c0-2.9,2.31-4.69,4.67-4.69c1.86,0,3.08,0.92,3.88,2v-1.79h1.48&#10;&#9;&#9;v8.21c0,1.54-0.46,2.71-1.27,3.52c-0.88,0.88-2.21,1.33-3.79,1.33C555.12,316.18,553.59,315.72,552.26,314.8z M560.41,307.63v-0.04&#10;&#9;&#9;c0-2.04-1.77-3.36-3.65-3.36c-1.88,0-3.44,1.31-3.44,3.34v0.04c0,2,1.6,3.38,3.44,3.38C558.64,310.99,560.41,309.63,560.41,307.63z&#10;&#9;&#9;" style="fill: rgb(27, 62, 117);"/>
	<path class="st1" d="M564.53,308.13v-0.04c0-2.86,2.02-5.17,4.77-5.17c2.94,0,4.63,2.35,4.63,5.25c0,0.19,0,0.31-0.02,0.48h-7.88&#10;&#9;&#9;c0.21,2.15,1.73,3.36,3.5,3.36c1.37,0,2.33-0.56,3.13-1.4l0.92,0.83c-1,1.11-2.21,1.86-4.09,1.86&#10;&#9;&#9;C566.76,313.3,564.53,311.2,564.53,308.13z M572.43,307.55c-0.15-1.81-1.19-3.38-3.17-3.38c-1.73,0-3.04,1.44-3.23,3.38H572.43z" style="fill: rgb(27, 62, 117);"/>
	<path class="st1" d="M576.53,303.13h1.48v1.73c0.65-1.08,1.69-1.94,3.4-1.94c2.4,0,3.81,1.62,3.81,3.98v6.17h-1.48v-5.81&#10;&#9;&#9;c0-1.85-1-3-2.75-3c-1.71,0-2.98,1.25-2.98,3.11v5.69h-1.48V303.13z" style="fill: rgb(27, 62, 117);"/>
	<path class="st1" d="M588.89,310.44v-6h-1.38v-1.31h1.38v-3h1.48v3h3.15v1.31h-3.15v5.81c0,1.21,0.67,1.65,1.67,1.65&#10;&#9;&#9;c0.5,0,0.92-0.1,1.44-0.35v1.27c-0.52,0.27-1.08,0.42-1.79,0.42C590.1,313.24,588.89,312.45,588.89,310.44z" style="fill: rgb(27, 62, 117);"/>
	<path class="st1" d="M601.95,299.32h1.69v1.63h-1.69V299.32z M602.05,303.13h1.48v9.94h-1.48V303.13z" style="fill: rgb(27, 62, 117);"/>
	<path class="st1" d="M606.97,303.13h1.48v1.73c0.65-1.08,1.69-1.94,3.4-1.94c2.4,0,3.81,1.62,3.81,3.98v6.17h-1.48v-5.81&#10;&#9;&#9;c0-1.85-1-3-2.75-3c-1.71,0-2.98,1.25-2.98,3.11v5.69h-1.48V303.13z" style="fill: rgb(27, 62, 117);"/>
	<path class="st1" d="M617.99,311.8l0.75-1.06c1.08,0.81,2.27,1.27,3.44,1.27c1.19,0,2.06-0.62,2.06-1.58v-0.04&#10;&#9;&#9;c0-1-1.17-1.38-2.48-1.75c-1.56-0.44-3.29-0.98-3.29-2.81v-0.04c0-1.71,1.42-2.85,3.38-2.85c1.21,0,2.56,0.42,3.58,1.1l-0.67,1.11&#10;&#9;&#9;c-0.92-0.6-1.98-0.96-2.94-0.96c-1.17,0-1.92,0.62-1.92,1.44v0.04c0,0.94,1.23,1.31,2.56,1.71c1.54,0.46,3.19,1.06,3.19,2.85v0.04&#10;&#9;&#9;c0,1.88-1.56,2.98-3.54,2.98C620.68,313.26,619.1,312.7,617.99,311.8z" style="fill: rgb(27, 62, 117);"/>
	<path class="st1" d="M628.43,299.32h1.69v1.63h-1.69V299.32z M628.53,303.13h1.48v9.94h-1.48V303.13z" style="fill: rgb(27, 62, 117);"/>
	<path class="st1" d="M633.33,314.8l0.67-1.15c1.13,0.83,2.4,1.27,3.83,1.27c2.19,0,3.61-1.21,3.61-3.54v-1.17&#10;&#9;&#9;c-0.87,1.15-2.08,2.09-3.9,2.09c-2.38,0-4.67-1.79-4.67-4.65v-0.04c0-2.9,2.31-4.69,4.67-4.69c1.86,0,3.08,0.92,3.88,2v-1.79h1.48&#10;&#9;&#9;v8.21c0,1.54-0.46,2.71-1.27,3.52c-0.88,0.88-2.21,1.33-3.79,1.33C636.2,316.18,634.66,315.72,633.33,314.8z M641.49,307.63v-0.04&#10;&#9;&#9;c0-2.04-1.77-3.36-3.65-3.36s-3.44,1.31-3.44,3.34v0.04c0,2,1.6,3.38,3.44,3.38C639.72,310.99,641.49,309.63,641.49,307.63z" style="fill: rgb(27, 62, 117);"/>
	<path class="st1" d="M646.22,299.03h1.48v5.83c0.65-1.08,1.69-1.94,3.4-1.94c2.4,0,3.81,1.62,3.81,3.98v6.17h-1.48v-5.81&#10;&#9;&#9;c0-1.85-1-3-2.75-3c-1.71,0-2.98,1.25-2.98,3.11v5.69h-1.48V299.03z" style="fill: rgb(27, 62, 117);"/>
	<path class="st1" d="M658.58,310.44v-6h-1.38v-1.31h1.38v-3h1.48v3h3.15v1.31h-3.15v5.81c0,1.21,0.67,1.65,1.67,1.65&#10;&#9;&#9;c0.5,0,0.92-0.1,1.44-0.35v1.27c-0.52,0.27-1.08,0.42-1.79,0.42C659.79,313.24,658.58,312.45,658.58,310.44z" style="fill: rgb(27, 62, 117);"/>
</g><path d="M 480.220001 250.389999 L 480.220001 342.160004" class="st4" style="fill: none; stroke: rgb(0, 162, 204); stroke-width: 1.25; stroke-miterlimit: 10;"/></g></svg>