<svg xmlns="http://www.w3.org/2000/svg" version="1.1" viewBox="0 0 646 539">
  <!-- Generator: Adobe Illustrator 30.2.1, SVG Export Plug-In . SVG Version: 2.1.1 Build 1)  -->
  <g id="Layer_1" display="none">
    <path d="M326,215c57.438,0,104-46.562,104-104S383.438,7,326,7s-104,46.562-104,104,46.562,104,104,104ZM102,223c39.764,0,72-32.236,72-72s-32.236-72-72-72h0c-39.765,0-72,32.235-72,72s32.235,72,72,72ZM6,407v32c0,17.7,14.3,32,32,32h86.7c-4.3-9.8-6.7-20.6-6.7-32v-16c0-53.2,20-101.8,52.9-138.6-11.7-3.5-24.1-5.4-36.9-5.4-70.7,0-128,57.3-128,128ZM622,151c0-39.765-32.235-72-72-72s-72,32.235-72,72,32.236,72,72,72,72-32.236,72-72ZM166,423v16c0,17.7,14.3,32,32,32h156.8c-7.1-21.6-6.3-44.4,10.7-64-14-16.2-20.5-39.7-11.4-63.3,6.6-17.1,15.9-33.1,27.4-47.3,5.4-6.6,11.6-11.7,18.3-15.4-22.1-11.5-47.2-18-73.8-18-88.4,0-160,71.6-160,160h0ZM630.6,378.9c6.3-3.6,9.5-11.1,6.8-18-4.8-12.4-11.5-24.1-19.9-34.4-4.6-5.7-12.7-6.7-19-3-21.8,12.6-48.6-2.8-48.6-28.1,0-7.3-4.9-13.8-12.1-14.9-12.9-2-26.8-2-39.7,0-7.2,1.1-12.1,7.6-12.1,14.9,0,25.2-26.8,40.7-48.6,28.1-6.3-3.6-14.4-2.6-19,3-8.4,10.3-15.1,22-19.9,34.4-2.6,6.8.5,14.3,6.8,17.9,21.9,12.6,21.9,43.5,0,56.2-6.3,3.6-9.5,11.1-6.8,17.9,4.8,12.4,11.5,24.1,19.9,34.4,4.6,5.7,12.7,6.7,19,3,21.8-12.6,48.6,2.9,48.6,28.1,0,7.3,4.9,13.8,12.1,14.9,12.9,2,26.8,2,39.7,0,7.2-1.1,12.1-7.6,12.1-14.9,0-25.2,26.8-40.7,48.6-28.1,6.3,3.6,14.4,2.6,19-3,8.4-10.3,15.1-22,19.9-34.4,2.6-6.8-.5-14.3-6.8-17.9-21.9-12.6-21.9-43.5,0-56.2v.1ZM478,407c0-22.091,17.909-40,40-40s40,17.909,40,40-17.909,40-40,40-40-17.909-40-40Z" fill="#020048"/>
  </g>
  <g id="Layer_2" display="none">
    <path d="M73.234,273.653c0-45.95,37.25-83.2,83.2-83.2s83.2,37.25,83.2,83.2-37.25,83.2-83.2,83.2-83.2-37.25-83.2-83.2ZM296.812,415.107h291.246c28.314,0,51.268-22.953,51.268-51.268V70.55c0-30.267-24.536-54.803-54.803-54.803H161.65c-30.267,0-54.803,24.536-54.803,54.803v113.15s14.19-10.248,34.584-12.767c22.65-2.798,31.976-.431,31.976-.431v-88.195h399.359v266.239h-66.56v-45.037c0-11.887-9.636-21.523-21.523-21.523h-120.548c-13.437,0-24.329,10.893-24.329,24.329v42.231h-42.995s0,66.56,0,66.56ZM6.674,489.972c0-55.12,44.72-99.84,99.84-99.84h99.84c55.12,0,99.84,44.72,99.84,99.84,0,18.408-14.872,33.28-33.28,33.28H39.954c-18.408,0-33.28-14.872-33.28-33.28Z" fill="#020048"/>
  </g>
  <g id="Layer_3" display="none">
    <path d="M323,13.4c35.346,0,64,28.654,64,64s-28.654,64-64,64-64-28.654-64-64,28.654-64,64-64ZM291,173.4h64c35.3,0,64,28.7,64,64v48c0,17.7-14.3,32-32,32h-1.8l-11.1,99.5c-1.8,16.2-15.5,28.5-31.8,28.5h-38.7c-16.3,0-30-12.3-31.8-28.5l-11.1-99.5h-1.8c-17.7,0-32-14.3-32-32v-48c0-35.3,28.7-64,64-64h.1ZM479.4,413.6c-16.1-4.2-34.8-7.6-55.4-10.2l5.3-47.7c22.7,2.9,43.7,6.7,62.1,11.5,22.4,5.8,42.6,13.3,57.8,23.3,14.7,9.6,29.8,24.9,29.8,47s-15.1,37.4-29.8,47c-15.2,9.9-35.5,17.5-57.8,23.3-45.1,11.7-105.3,17.8-168.4,17.8s-123.3-6.1-168.4-17.8c-22.4-6-42.6-13.5-57.8-23.4-14.7-9.6-29.8-24.9-29.8-47s15.1-37.4,29.8-47c15.2-9.9,35.5-17.5,57.8-23.3,18.5-4.8,39.5-8.6,62.1-11.5l5.3,47.8c-20.6,2.6-39.3,6.1-55.4,10.2-56.6,14.6-56.6,32.9,0,47.5,39.9,10.3,95.8,16.2,156.4,16.2s116.5-5.9,156.4-16.2c56.6-14.6,56.6-32.9,0-47.5Z" fill="#020048"/>
  </g>
  <g id="Layer_4">
    <path d="M548.7,253.6c-17.6-1.2-32.9,12-34.2,29.7-3.3,47-23.6,89.4-54.8,121l-31.7-31.8c-6.9-6.9-17.2-8.9-26.2-5.2s-14.8,12.5-14.8,22.2v112c0,13.3,10.7,24,24,24h112c9.7,0,18.5-5.8,22.2-14.8s1.7-19.3-5.2-26.2l-35-35c41.7-42.2,68.9-98.8,73.4-161.8,1.2-17.6-12-32.9-29.7-34.2v.1ZM106,54.5l35,35c-41.7,42.2-68.9,98.8-73.4,161.8-1.2,17.6,12,32.9,29.7,34.2s32.9-12,34.2-29.7c3.3-47,23.6-89.4,54.8-121l31.7,31.7c6.9,6.9,17.2,8.9,26.2,5.2s14.8-12.5,14.8-22.2V37.5c0-13.3-10.7-24-24-24h-112c-9.7,0-18.5,5.8-22.2,14.8-3.7,9-1.6,19.3,5.2,26.2ZM307,43.8c-1.2,17.6,12,32.9,29.7,34.2,47,3.3,89.4,23.6,121,54.8l-31.7,31.7c-6.9,6.9-8.9,17.2-5.2,26.2s12.5,14.8,22.2,14.8h112c13.3,0,24-10.7,24-24v-112c0-9.7-5.8-18.5-14.8-22.2s-19.3-1.6-26.2,5.2l-35,35c-42.2-41.7-98.8-68.9-161.8-73.4-17.6-1.2-32.9,12-34.2,29.7h0ZM108,486.5l35-35c42.2,41.7,98.8,68.9,161.8,73.4,17.6,1.2,32.9-12,34.2-29.7s-12-32.9-29.7-34.2c-47-3.3-89.4-23.6-121-54.8l31.7-31.7c6.9-6.9,8.9-17.2,5.2-26.2s-12.5-14.8-22.2-14.8h-112c-13.3,0-24,10.7-24,24v112c0,9.7,5.8,18.5,14.8,22.2,9,3.7,19.3,1.6,26.2-5.2Z" fill="#020048"/>
  </g>
</svg>